<?xml version="1.0" standalone="no"?>
<!DOCTYPE svg PUBLIC "-//W3C//DTD SVG 20010904//EN"
 "http://www.w3.org/TR/2001/REC-SVG-20010904/DTD/svg10.dtd">
<svg version="1.0" xmlns="http://www.w3.org/2000/svg"
 width="175" height="70" viewBox="110 0 175 160"
 preserveAspectRatio="xMidYMid meet">

<g transform="translate(0.000000,140.000000) scale(0.100000,-0.100000)"
fill="#000000" stroke="none">
<path d="M406 1274 c-125 -27 -190 -74 -240 -174 -50 -101 -59 -173 -54 -443
4 -197 8 -241 25 -293 65 -198 202 -264 553 -264 378 0 526 76 587 300 25 92
25 483 0 583 -43 174 -127 257 -296 293 -93 19 -481 18 -575 -2z m419 -93 c49
-22 88 -58 110 -101 25 -48 30 -28 6 27 l-21 48 30 -33 c24 -26 30 -41 30 -76
0 -43 -19 -74 -38 -62 -5 3 -15 25 -21 49 -12 48 -41 84 -41 51 0 -12 -9 -4
-26 23 -15 22 -45 52 -67 67 -49 31 -24 36 38 7z m-83 -11 c39 -11 98 -62 98
-85 0 -7 -13 -1 -31 16 -36 33 -55 38 -39 10 17 -33 11 -36 -17 -9 -16 15 -48
38 -73 52 l-45 26 35 0 c19 0 52 -5 72 -10z m-67 -30 c44 -22 113 -86 102 -96
-3 -4 -36 13 -73 37 -60 39 -74 44 -133 46 l-66 2 50 -12 50 -13 -38 -7 c-20
-5 -53 -22 -73 -39 -20 -17 -58 -42 -85 -54 -27 -13 -72 -47 -101 -76 -45 -48
-49 -50 -33 -19 27 53 93 118 148 146 57 28 33 36 -31 9 l-37 -15 34 35 c19
19 53 44 75 55 56 27 156 28 211 1z m-42 -83 c18 -8 38 -21 45 -30 11 -13 10
-16 -7 -22 -11 -3 -29 -1 -40 4 -34 19 -68 13 -85 -14 -16 -24 -16 -26 7 -49
18 -18 21 -28 14 -35 -17 -17 -34 -13 -56 15 -28 36 -26 76 5 113 29 35 63 40
117 18z m283 -75 c76 -49 83 -59 82 -110 0 -44 -20 -55 -23 -14 -2 29 -7 33
-22 17 -10 -11 3 -27 63 -84 72 -68 75 -72 73 -113 -2 -62 -8 -78 -32 -88 -19
-7 -19 -9 -4 -9 21 -1 18 -20 -5 -35 -11 -7 -23 -5 -41 7 -33 21 -27 45 24 96
22 21 39 41 39 45 0 3 -37 6 -82 6 l-83 -1 38 -30 c50 -42 51 -88 2 -117 -18
-11 -18 -12 7 -6 39 9 68 -24 68 -78 0 -28 -3 -38 -9 -30 -6 11 -9 9 -14 -7
-3 -14 -11 -19 -25 -16 -11 2 -23 -3 -26 -11 -8 -20 -26 -18 -27 4 0 10 -3 12
-6 5 -4 -10 -9 -10 -26 -1 -12 7 -26 12 -30 13 -4 0 -12 7 -17 15 -5 8 -10 11
-10 5 -1 -14 -29 37 -30 53 0 7 13 12 33 12 17 1 46 7 62 15 l30 15 -32 -6
c-48 -8 -93 20 -93 59 0 16 2 16 30 2 16 -8 42 -15 57 -14 22 0 15 5 -29 21
-49 17 -58 23 -58 44 0 13 1 24 3 24 1 0 29 -9 61 -20 32 -12 60 -19 63 -17 6
7 -80 47 -100 47 -42 0 -4 53 46 65 23 6 28 12 25 34 -2 21 -9 27 -37 31 -30
4 -36 10 -47 45 -6 22 -12 32 -13 23 -1 -13 -10 -18 -33 -19 -25 -1 -27 -3
-10 -6 13 -3 26 -11 29 -19 3 -8 11 -14 18 -14 7 0 18 -13 25 -29 11 -27 9
-33 -16 -66 -21 -28 -29 -51 -32 -96 -4 -53 -7 -59 -26 -59 -53 0 -60 48 -15
110 l31 43 -29 -21 -29 -21 -12 32 c-12 30 -13 31 -24 12 -6 -11 -26 -37 -45
-58 l-33 -37 0 28 c0 16 9 55 20 87 11 32 20 62 20 67 0 14 -123 -121 -142
-156 -29 -52 -41 -140 -28 -198 6 -28 8 -53 5 -56 -10 -10 -38 75 -43 131 -7
93 12 139 92 227 39 42 88 104 108 136 l36 59 -46 3 c-78 5 -66 16 40 36 93
18 105 18 144 4 42 -15 43 -14 33 3 -16 30 11 23 77 -19z m-496 -46 c0 -2 -16
-14 -35 -26 -41 -26 -37 -42 8 -34 l32 6 -25 -17 c-55 -39 -84 -73 -112 -130
l-29 -60 4 65 c5 72 24 119 65 158 34 30 92 55 92 38z m86 -108 c-79 -44 -135
-141 -137 -236 -1 -44 -1 -45 -10 -17 -5 17 -10 57 -11 89 l-2 59 -20 -44
c-20 -47 -25 -99 -14 -169 l7 -45 -15 33 c-42 95 -22 233 43 300 20 20 31 30
25 22 -6 -9 -16 -29 -21 -45 l-11 -30 20 27 c28 37 115 90 95 58 -3 -5 9 -3
27 4 36 16 54 11 24 -6z m52 -174 c-28 -79 -29 -173 0 -237 11 -26 44 -71 71
-100 28 -30 51 -57 51 -61 0 -13 -92 59 -126 99 -36 41 -64 116 -64 171 0 46
27 122 57 162 14 18 27 32 29 29 2 -2 -6 -30 -18 -63z m113 -41 c-17 -59 -14
-79 29 -185 39 -97 51 -170 30 -183 -5 -3 -10 2 -10 11 0 9 -20 51 -44 93 -75
127 -81 191 -29 280 29 50 40 43 24 -16z m-259 -189 c20 -27 57 -64 82 -83 55
-41 53 -50 -3 -22 -96 49 -161 143 -160 230 l0 46 23 -61 c12 -34 39 -84 58
-110z m369 4 c35 -67 22 -157 -29 -211 -38 -40 -46 -33 -15 15 40 60 39 130
-4 222 -18 37 -33 71 -33 75 1 12 61 -64 81 -101z"/>
<path d="M884 891 c-1 -21 4 -31 17 -34 24 -6 25 14 2 42 l-18 22 -1 -30z"/>
<path d="M2140 1060 c-12 -12 -20 -33 -20 -55 0 -24 -5 -35 -15 -35 -11 0 -15
-11 -15 -40 0 -29 4 -40 15 -40 12 0 15 -19 15 -110 l0 -110 50 0 50 0 0 110
0 110 25 0 c23 0 25 4 25 40 0 36 -2 40 -25 40 -34 0 -32 18 3 22 24 3 27 7
30 46 l3 42 -60 0 c-48 0 -65 -4 -81 -20z"/>
<path d="M2774 1066 c-3 -8 -4 -27 -2 -43 3 -25 8 -28 41 -31 21 -2 45 2 53 9
17 14 18 51 2 67 -17 17 -87 15 -94 -2z"/>
<path d="M1578 1041 c-31 -27 -33 -34 -33 -91 0 -57 2 -64 32 -88 17 -15 46
-36 65 -47 52 -32 44 -50 -22 -48 -61 1 -70 -6 -70 -53 0 -38 15 -44 106 -44
72 0 106 21 124 76 23 69 -7 128 -88 168 -57 29 -51 72 8 60 73 -15 68 -18 72
34 2 26 -1 50 -6 54 -6 4 -44 8 -83 8 -66 0 -76 -3 -105 -29z"/>
<path d="M1855 971 c-27 -6 -30 -10 -27 -41 4 -57 6 -59 51 -48 46 12 71 6 71
-17 0 -9 -9 -15 -25 -15 -44 0 -94 -27 -106 -57 -13 -34 -5 -80 18 -105 18
-20 73 -24 104 -7 15 7 24 7 34 -1 7 -6 31 -10 52 -8 34 3 38 6 41 32 2 16 -1
33 -7 39 -6 6 -11 48 -11 95 0 79 -10 118 -34 134 -13 9 -119 8 -161 -1z m95
-206 c0 -18 -5 -25 -20 -25 -20 0 -28 28 -13 43 15 16 33 6 33 -18z"/>
<path d="M2325 973 c-32 -8 -37 -19 -30 -60 l6 -40 50 10 c35 7 53 7 61 -1 16
-16 2 -29 -42 -36 -56 -9 -90 -44 -90 -93 0 -57 22 -83 71 -83 22 0 50 5 61
11 14 8 23 8 31 0 6 -6 28 -11 48 -11 34 0 38 3 44 32 6 23 3 35 -9 43 -13 10
-16 29 -14 104 3 87 2 94 -21 112 -18 14 -38 19 -85 18 -33 -1 -70 -3 -81 -6z
m95 -208 c0 -18 -5 -25 -19 -25 -24 0 -33 13 -25 34 10 27 44 20 44 -9z"/>
<path d="M2686 972 c-3 -5 -30 -7 -61 -4 l-55 4 0 -151 0 -151 50 0 49 0 3
103 3 102 33 3 c29 3 32 6 32 37 0 18 3 40 6 49 5 12 -1 16 -24 16 -17 0 -33
-4 -36 -8z"/>
<path d="M2770 820 l0 -150 50 0 50 0 0 150 0 150 -50 0 -50 0 0 -150z"/>
<path d="M1530 605 c0 -45 0 -45 35 -45 l35 0 0 -145 0 -145 50 0 49 0 3 143
3 142 38 3 c37 3 37 4 37 48 l0 44 -125 0 -125 0 0 -45z"/>
<path d="M1853 551 c-38 -24 -48 -42 -57 -97 -9 -60 8 -132 37 -161 49 -50
163 -40 191 16 36 71 30 175 -13 224 -36 40 -110 48 -158 18z m91 -87 c3 -9 6
-33 6 -54 0 -51 -8 -70 -31 -70 -22 0 -35 52 -25 105 7 38 38 50 50 19z"/>
<path d="M2496 563 c-4 -4 -34 -6 -67 -5 l-59 3 0 -145 0 -146 50 0 49 0 3 97
3 98 30 5 c28 5 30 9 33 53 3 40 0 47 -16 47 -10 0 -22 -3 -26 -7z"/>
<path d="M2581 544 c-26 -22 -31 -33 -31 -70 0 -49 24 -81 80 -104 45 -19 37
-34 -14 -27 -47 7 -56 -1 -56 -48 0 -25 22 -35 80 -35 56 0 80 11 95 41 33 62
7 126 -60 151 -48 17 -38 33 18 29 l47 -3 0 40 c0 36 -3 40 -31 46 -62 12 -97
7 -128 -20z"/>
<path d="M2080 436 c0 -111 2 -126 21 -151 20 -24 26 -26 63 -21 23 4 69 6
104 6 l62 -1 0 145 0 146 -50 0 -49 0 -3 -102 c-3 -95 -4 -103 -23 -103 -19 0
-20 8 -23 103 l-3 102 -49 0 -50 0 0 -124z"/>
</g>
</svg>
